<svg xmlns="http://www.w3.org/2000/svg" xmlns:xlink="http://www.w3.org/1999/xlink" width="250" height="250" viewBox="0 0 172 172" fill="none"><defs><rect id="path_0" x="0" y="0" width="171.005109192389" height="171.005109192389" /><rect id="path_1" x="0" y="0" width="171.005109192389" height="171.005109192389" /><linearGradient id="linear_0" x1="-5.551115123125783e-15%" y1="50%" x2="100%" y2="49.999999999999986%" gradientUnits="objectBoundingBox"><stop offset="0" stop-color="#7948EA" stop-opacity="1" /><stop offset="1" stop-color="#C6ADFF" stop-opacity="1" /></linearGradient><linearGradient id="linear_1" x1="-5.551115123125783e-15%" y1="50%" x2="100%" y2="49.999999999999986%" gradientUnits="objectBoundingBox"><stop offset="0" stop-color="#7948EA" stop-opacity="1" /><stop offset="1" stop-color="#C6ADFF" stop-opacity="1" /></linearGradient></defs><g opacity="1" transform="translate(0.000008880368000063754 0)  rotate(0 85.5025545961945 85.5025545961945)"><mask id="bg-mask-0" fill="white"><use xlink:href="#path_0"></use></mask><g mask="url(#bg-mask-0)" ><g opacity="1" transform="translate(0 0)  rotate(90 85.5025545961945 85.5025545961945)"><mask id="bg-mask-1" fill="white"><use xlink:href="#path_1"></use></mask><g mask="url(#bg-mask-1)" ><path id="路径 1" fill-rule="evenodd" style="fill:#FFFFFF" transform="translate(17.81303220754049 21.37563864904862)  rotate(0 67.68952238865397 24.93824509055672)" opacity="0.37" d="M14.25,24.94C14.25,42.75 0,49.88 0,49.88L121.13,49.88C121.13,49.88 135.38,42.75 135.38,24.94C135.38,7.13 121.13,0 121.13,0L0,0C0,0 14.25,7.13 14.25,24.94Z " /><path id="路径 1" style="stroke:url(#linear_0); stroke-width:12; stroke-opacity:100; stroke-dasharray:0 0" transform="translate(17.81303220754049 21.37563864904862)  rotate(0 67.68952238865397 24.93824509055672)" d="M14.25,24.94C14.25,42.75 0,49.88 0,49.88L121.13,49.88C121.13,49.88 135.38,42.75 135.38,24.94C135.38,7.13 121.13,0 121.13,0L0,0C0,0 14.25,7.13 14.25,24.94Z " /><path id="路径 2" fill-rule="evenodd" style="fill:#FFFFFF" transform="translate(17.813032207540513 99.75298036222702)  rotate(0 67.68952238865397 24.93824509055672)" opacity="0.37" d="M14.25,0C14.25,0 0,7.13 0,24.94C0,42.75 14.25,49.88 14.25,49.88L135.38,49.88C135.38,49.88 121.13,42.75 121.13,24.94C121.13,7.13 135.38,0 135.38,0L14.25,0Z " /><path id="路径 2" style="stroke:url(#linear_1); stroke-width:12; stroke-opacity:100; stroke-dasharray:0 0" transform="translate(17.813032207540513 99.75298036222702)  rotate(0 67.68952238865397 24.93824509055672)" d="M14.25,0C14.25,0 0,7.13 0,24.94C0,42.75 14.25,49.88 14.25,49.88L135.38,49.88C135.38,49.88 121.13,42.75 121.13,24.94C121.13,7.13 135.38,0 135.38,0L14.25,0Z " /></g></g></g></g></svg>