<svg xmlns="http://www.w3.org/2000/svg" xmlns:xlink="http://www.w3.org/1999/xlink" width="160" height="160" viewBox="0 0 160 160" fill="none"><defs><rect id="path_0" x="0" y="0" width="160" height="160" /><rect id="path_1" x="0" y="0" width="149.00000000000003" height="149.00000000000003" /><linearGradient id="linear_0" x1="-5.551115123125783e-15%" y1="50%" x2="100%" y2="49.999999999999986%" gradientUnits="objectBoundingBox"><stop offset="0" stop-color="#7948EA" stop-opacity="1" /><stop offset="1" stop-color="#C6ADFF" stop-opacity="1" /></linearGradient><linearGradient id="linear_1" x1="-5.551115123125783e-15%" y1="50%" x2="100%" y2="49.999999999999986%" gradientUnits="objectBoundingBox"><stop offset="0" stop-color="#7948EA" stop-opacity="1" /><stop offset="1" stop-color="#C6ADFF" stop-opacity="1" /></linearGradient></defs><g opacity="1" transform="translate(0 0)  rotate(0 80 80)"><mask id="bg-mask-0" fill="white"><use xlink:href="#path_0"></use></mask><g mask="url(#bg-mask-0)" ><g opacity="1" transform="translate(6 6)  rotate(90 74.50000000000001 74.50000000000001)"><mask id="bg-mask-1" fill="white"><use xlink:href="#path_1"></use></mask><g mask="url(#bg-mask-1)" ><path id="路径 1" style="stroke:url(#linear_0); stroke-width:12; stroke-opacity:100; stroke-dasharray:0 0" transform="translate(15.520833333333332 18.625000000000004)  rotate(0 58.97916666666667 21.729166666666664)" d="M12.42,21.73C12.42,37.25 0,43.46 0,43.46L105.54,43.46C105.54,43.46 117.96,37.25 117.96,21.73C117.96,6.21 105.54,0 105.54,0L0,0C0,0 12.42,6.21 12.42,21.73Z " /><path id="路径 2" style="stroke:url(#linear_1); stroke-width:12; stroke-opacity:100; stroke-dasharray:0 0" transform="translate(15.520833333333366 86.91666666666674)  rotate(0 58.97916666666667 21.729166666666664)" d="M12.42,0C12.42,0 0,6.21 0,21.73C0,37.25 12.42,43.46 12.42,43.46L117.96,43.46C117.96,43.46 105.54,37.25 105.54,21.73C105.54,6.21 117.96,0 117.96,0L12.42,0Z " /></g></g></g></g></svg>